<svg width="59" height="48" viewBox="0 0 59 48" fill="none" xmlns="http://www.w3.org/2000/svg">
<path d="M0.226196 2.47403C0.226196 1.5899 0.942928 0.873169 1.82706 0.873169H15.4344C16.3185 0.873169 17.0353 1.5899 17.0353 2.47403V12.6693C17.0353 13.2868 16.6802 13.8492 16.1227 14.1147L9.319 17.3545C8.88358 17.5618 8.37789 17.5618 7.94247 17.3545L1.1388 14.1147C0.58131 13.8492 0.226196 13.2868 0.226196 12.6693V2.47403Z" fill="white"/>
<path d="M25.84 2.47403C25.84 1.5899 26.5568 0.873169 27.4409 0.873169H31.4431C32.3272 0.873169 33.0439 1.5899 33.0439 2.47403V5.67576C33.0439 6.5599 32.3272 7.27663 31.4431 7.27663H27.4409C26.5568 7.27663 25.84 6.5599 25.84 5.67576V2.47403Z" fill="white"/>
<path d="M41.8487 2.47403C41.8487 1.5899 42.5654 0.873169 43.4495 0.873169H57.0569C57.941 0.873169 58.6578 1.5899 58.6578 2.47403V12.0792C58.6578 12.9634 57.941 13.6801 57.0569 13.6801H43.4495C42.5654 13.6801 41.8487 12.9634 41.8487 12.0792V2.47403Z" fill="white"/>
<path d="M0.226196 19.2831C0.226196 18.399 0.942928 17.6823 1.82706 17.6823H15.4344C16.3185 17.6823 17.0353 18.399 17.0353 19.2831V28.8883C17.0353 29.7724 16.3185 30.4892 15.4344 30.4892H1.82706C0.942928 30.4892 0.226196 29.7724 0.226196 28.8883V19.2831Z" fill="white"/>
<path d="M21.0374 12.8797C21.0374 11.9955 21.7542 11.2788 22.6383 11.2788H36.2457C37.1298 11.2788 37.8465 11.9955 37.8465 12.8797V35.2918C37.8465 36.1759 37.1298 36.8926 36.2457 36.8926H22.6383C21.7542 36.8926 21.0374 36.1759 21.0374 35.2918V12.8797Z" fill="white"/>
<path d="M41.8487 19.2831C41.8487 18.399 42.5654 17.6823 43.4495 17.6823H57.0569C57.941 17.6823 58.6578 18.399 58.6578 19.2831V28.8883C58.6578 29.7724 57.941 30.4892 57.0569 30.4892H43.4495C42.5654 30.4892 41.8487 29.7724 41.8487 28.8883V19.2831Z" fill="white"/>
<path d="M0.226196 36.0922C0.226196 35.2081 0.942928 34.4913 1.82706 34.4913H15.4344C16.3185 34.4913 17.0353 35.2081 17.0353 36.0922V45.6974C17.0353 46.5815 16.3185 47.2983 15.4344 47.2983H1.82706C0.942928 47.2983 0.226196 46.5815 0.226196 45.6974V36.0922Z" fill="white"/>
<path d="M25.84 42.4957C25.84 41.6115 26.5568 40.8948 27.4409 40.8948H31.4431C32.3272 40.8948 33.0439 41.6115 33.0439 42.4957V45.6974C33.0439 46.5815 32.3272 47.2983 31.4431 47.2983H27.4409C26.5568 47.2983 25.84 46.5815 25.84 45.6974V42.4957Z" fill="white"/>
<path d="M41.8487 35.5021C41.8487 34.8847 42.2038 34.3222 42.7613 34.0568L49.565 30.8169C50.0004 30.6096 50.5061 30.6096 50.9415 30.8169L57.7452 34.0568C58.3027 34.3222 58.6578 34.8847 58.6578 35.5021V45.6974C58.6578 46.5815 57.941 47.2983 57.0569 47.2983H43.4495C42.5654 47.2983 41.8487 46.5815 41.8487 45.6974V35.5021Z" fill="white"/>
<path d="M0.726196 2.47403C0.726196 1.86604 1.21907 1.37317 1.82706 1.37317H15.4344C16.0424 1.37317 16.5353 1.86604 16.5353 2.47403V12.6693C16.5353 13.0939 16.2911 13.4807 15.9077 13.6632L9.10404 16.9031C8.80461 17.0457 8.45686 17.0457 8.15744 16.9031L1.35376 13.6632C0.970397 13.4807 0.726196 13.0939 0.726196 12.6693V2.47403ZM26.34 2.47403C26.34 1.86604 26.8329 1.37317 27.4409 1.37317H31.4431C32.0511 1.37317 32.5439 1.86604 32.5439 2.47403V5.67576C32.5439 6.28375 32.0511 6.77663 31.4431 6.77663H27.4409C26.8329 6.77663 26.34 6.28375 26.34 5.67576V2.47403ZM42.3487 2.47403C42.3487 1.86604 42.8416 1.37317 43.4495 1.37317H57.0569C57.6649 1.37317 58.1578 1.86604 58.1578 2.47403V12.0792C58.1578 12.6872 57.6649 13.1801 57.0569 13.1801H43.4495C42.8416 13.1801 42.3487 12.6872 42.3487 12.0792V2.47403ZM0.726196 19.2831C0.726196 18.6751 1.21907 18.1823 1.82706 18.1823H15.4344C16.0424 18.1823 16.5353 18.6751 16.5353 19.2831V28.8883C16.5353 29.4963 16.0424 29.9892 15.4344 29.9892H1.82706C1.21907 29.9892 0.726196 29.4963 0.726196 28.8883V19.2831ZM21.5374 12.8797C21.5374 12.2717 22.0303 11.7788 22.6383 11.7788H36.2457C36.8536 11.7788 37.3465 12.2717 37.3465 12.8797V35.2918C37.3465 35.8998 36.8536 36.3926 36.2457 36.3926H22.6383C22.0303 36.3926 21.5374 35.8998 21.5374 35.2918V12.8797ZM42.3487 19.2831C42.3487 18.6751 42.8416 18.1823 43.4495 18.1823H57.0569C57.6649 18.1823 58.1578 18.6751 58.1578 19.2831V28.8883C58.1578 29.4963 57.6649 29.9892 57.0569 29.9892H43.4495C42.8416 29.9892 42.3487 29.4963 42.3487 28.8883V19.2831ZM0.726196 36.0922C0.726196 35.4842 1.21907 34.9913 1.82706 34.9913H15.4344C16.0424 34.9913 16.5353 35.4842 16.5353 36.0922V45.6974C16.5353 46.3054 16.0424 46.7983 15.4344 46.7983H1.82706C1.21907 46.7983 0.726196 46.3054 0.726196 45.6974V36.0922ZM26.34 42.4957C26.34 41.8877 26.8329 41.3948 27.4409 41.3948H31.4431C32.0511 41.3948 32.5439 41.8877 32.5439 42.4957V45.6974C32.5439 46.3054 32.0511 46.7983 31.4431 46.7983H27.4409C26.8329 46.7983 26.34 46.3054 26.34 45.6974V42.4957ZM42.3487 35.5021C42.3487 35.0775 42.5929 34.6907 42.9762 34.5082L49.7799 31.2683C50.0793 31.1258 50.4271 31.1258 50.7265 31.2683L57.5302 34.5082C57.9136 34.6907 58.1578 35.0775 58.1578 35.5021V45.6974C58.1578 46.3054 57.6649 46.7983 57.0569 46.7983H43.4495C42.8416 46.7983 42.3487 46.3054 42.3487 45.6974V35.5021Z" stroke="url(#paint0_linear_1_75)" stroke-opacity="0.5"/>
<defs>
<linearGradient id="paint0_linear_1_75" x1="4.53168" y1="3.00098" x2="43.8513" y2="38.2601" gradientUnits="userSpaceOnUse">
<stop stop-color="white"/>
<stop offset="1" stop-color="white" stop-opacity="0.55"/>
</linearGradient>
</defs>
</svg>
