<svg width="32" height="53" viewBox="0 0 32 53" fill="none" xmlns="http://www.w3.org/2000/svg">
<path fill-rule="evenodd" clip-rule="evenodd" d="M18.1227 3.88679C18.9354 3.30595 20.0651 3.49394 20.646 4.30667C23.7387 8.63416 27.4276 16.0149 28.509 24.236C29.5977 32.5133 28.0441 41.7536 20.4618 49.4363C19.76 50.1473 18.6148 50.1549 17.9038 49.4532C17.1928 48.7515 17.1853 47.6062 17.887 46.8952C24.5 40.1947 25.9038 32.1693 24.9223 24.7078C23.9335 17.19 20.5248 10.3587 17.7028 6.41008C17.122 5.59734 17.3099 4.46763 18.1227 3.88679ZM10.2825 10.5205C11.0944 9.93845 12.2244 10.1248 12.8064 10.9366C14.9896 13.9818 17.5874 19.1612 18.3505 24.9449C19.1212 30.7856 18.0215 37.3521 12.6218 42.8062C11.919 43.5161 10.7737 43.5219 10.0638 42.819C9.35394 42.1162 9.3482 40.971 10.051 40.2611C14.4788 35.7887 15.4266 30.4394 14.7641 25.4181C14.094 20.3398 11.778 15.7109 9.86638 13.0444C9.28434 12.2325 9.47064 11.1025 10.2825 10.5205ZM4.24633 17.7606C5.05542 17.1747 6.18628 17.3556 6.77218 18.1647C7.96425 19.8109 9.37389 22.5897 9.79063 25.7167C10.2153 28.9033 9.60862 32.5551 6.58618 35.5776C5.87981 36.284 4.73456 36.284 4.0282 35.5776C3.32183 34.8712 3.32183 33.726 4.0282 33.0196C6.07029 30.9775 6.5187 28.5499 6.20481 26.1946C5.88298 23.7798 4.76034 21.5543 3.84219 20.2864C3.2563 19.4773 3.43723 18.3465 4.24633 17.7606Z" fill="white" stroke="url(#paint0_linear_1_73)" stroke-opacity="0.5" stroke-width="6" stroke-linecap="round"/>
<defs>
<linearGradient id="paint0_linear_1_73" x1="5.36414" y1="5.67728" x2="32.0725" y2="16.0564" gradientUnits="userSpaceOnUse">
<stop stop-color="white"/>
<stop offset="1" stop-color="white" stop-opacity="0.55"/>
</linearGradient>
</defs>
</svg>
